#!OML:ASF F:\VICON\USERDATA\INSTALL\rory3\rory3.ASF
:FULLY-SPECIFIED
:DEGREES
207
root -0.136544 18.0976 12.2479 -167.344 -0.155306 179.112
lowerback 7.37888 1.20285 -3.23589
upperback 1.53881 1.29719 1.52667
thorax -2.65449 0.630929 3.2768
lowerneck -15.7361 2.71445 -9.5361
upperneck 39.9961 1.98596 1.77432
head 17.0861 -1.84214 2.42658
rclavicle 5.56597e-015 -2.38542e-015
rhumerus -25.2414 -2.24822 -80.4999
rradius 35.1559
rwrist 20.1644
rhand -20.1456 2.25021
rfingers 7.12502
rthumb 6.19927 -27.6391
lclavicle 5.56597e-015 -2.38542e-015
lhumerus -31.0304 11.6401 79.1882
lradius 33.6261
lwrist -6.77654
lhand -9.45755 26.0446
lfingers 7.12502
lthumb 16.506 55.3625
rfemur -8.29665 3.12121 24.7007
rtibia 10.6942
rfoot -14.4943 -7.91724
rtoes 11.8349
lfemur -67.0017 1.55715 -25.729
ltibia 82.0542
lfoot -19.6763 -6.53726
ltoes -11.5987
208
root -0.148759 18.0924 12.1866 -167.205 -0.170222 179.146
lowerback 7.31819 1.2194 -3.19825
upperback 1.562 1.3228 1.49089
thorax -2.59708 0.641863 3.21683
lowerneck -15.7748 2.67159 -9.49234
upperneck 39.9071 1.96074 1.73835
head 17.0514 -1.83466 2.40087
rclavicle 3.77691e-015 3.57812e-015
rhumerus -25.168 -2.21182 -80.5051
rradius 35.1378
rwrist 20.2103
rhand -20.1445 2.05266
rfingers 7.12502
rthumb 6.2003 -27.8366
lclavicle 3.77691e-015 3.57812e-015
lhumerus -30.7777 11.7283 79.224
lradius 33.4316
lwrist -7.03914
lhand -9.46369 26.3416
lfingers 7.12502
lthumb 16.5 55.66
rfemur -8.03918 3.02232 24.7042
rtibia 10.3178
rfoot -14.4123 -7.87842
rtoes 11.308
lfemur -67.0016 1.53056 -25.7355
ltibia 82.2474
lfoot -19.9756 -6.51253
ltoes -11.9955
209
root -0.159028 18.0918 12.1242 -167.044 -0.17727 179.164
lowerback 7.23811 1.26155 -3.18335
upperback 1.58246 1.38134 1.42004
thorax -2.53389 0.669673 3.13041
lowerneck -15.9531 2.5887 -9.40496
upperneck 39.9217 1.83937 1.77367
head 17.1158 -1.85686 2.385
rclavicle 9.93923e-015 3.57812e-015
rhumerus -25.0815 -2.37044 -80.5156
rradius 35.0486
rwrist 20.1803
rhand -20.0497 1.99082
rfingers 7.12502
rthumb 6.29188 -27.8957
lclavicle 9.93923e-015 3.57812e-015
lhumerus -30.5975 11.5448 79.2464
lradius 33.343
lwrist -7.13469
lhand -9.29897 26.5049
lfingers 7.12502
lthumb 16.6586 55.81
rfemur -7.81505 2.94818 24.694
rtibia 9.95677
rfoot -14.3438 -7.8501
rtoes 10.4782
lfemur -66.9726 1.50736 -25.7387
ltibia 82.5144
lfoot -20.3049 -6.4313
ltoes -12.4412
210
root -0.169004 18.0872 12.0618 -166.843 -0.226566 179.15
lowerback 7.24948 1.28669 -3.20804
upperback 1.51899 1.41511 1.36112
thorax -2.60754 0.690697 3.07911
lowerneck -16.159 2.50081 -9.40506
upperneck 39.9895 1.7173 1.83758
head 17.2154 -1.89647 2.3966
rclavicle 1.03368e-014 -1.27222e-014
rhumerus -25.0765 -2.41214 -80.4802
rradius 34.9631
rwrist 20.1591
rhand -19.852 2.09994
rfingers 7.12502
rthumb 6.48269 -27.7808
lclavicle 1.03368e-014 -1.27222e-014
lhumerus -30.5438 11.2848 79.2823
lradius 33.2416
lwrist -7.18774
lhand -9.24034 26.3369
lfingers 7.12502
lthumb 16.7151 55.6373
rfemur -7.54794 2.82789 24.6538
rtibia 9.42229
rfoot -14.2411 -7.77674
rtoes 10.4631
lfemur -66.962 1.4464 -25.7597
ltibia 82.8421
lfoot -20.6306 -6.39655
ltoes -13.1424
211
root -0.182442 18.0852 11.9952 -166.687 -0.136971 179.099
lowerback 7.29442 1.34325 -3.2627
upperback 1.43738 1.48718 1.27749
thorax -2.72171 0.732221 3.0145
lowerneck -16.254 2.44112 -9.42412
upperneck 40.0076 1.63947 1.87441
head 17.256 -1.92339 2.40491
rclavicle -1.72943e-014 1.15295e-014
rhumerus -25.147 -2.50821 -80.401
rradius 35.0108
rwrist 20.6769
rhand -19.4507 2.57108
rfingers 7.12502
rthumb 6.87012 -27.2974
lclavicle -1.72943e-014 1.15295e-014
lhumerus -30.5557 11.1347 79.2814
lradius 33.2559
lwrist -7.24371
lhand -9.14134 26.4673
lfingers 7.12502
lthumb 16.8104 55.7597
rfemur -7.17587 2.82578 24.5204
rtibia 8.76413
rfoot -14.0577 -7.66491
rtoes 10.882
lfemur -66.8875 1.46771 -25.8544
ltibia 83.0683
lfoot -20.8606 -6.39556
ltoes -13.958
212
root -0.196403 18.0941 11.9229 -166.571 0.0171332 179.108
lowerback 7.20445 1.38252 -3.29735
upperback 1.44447 1.53926 1.2176
thorax -2.66748 0.757757 2.96834
lowerneck -16.2975 2.40017 -9.46811
upperneck 39.8778 1.61752 1.9456
head 17.195 -1.90851 2.44419
rclavicle 1.21259e-014 1.90833e-014
rhumerus -25.072 -2.58817 -80.3735
rradius 35.0129
rwrist 21.0926
rhand -18.8941 2.87472
rfingers 7.12502
rthumb 7.40741 -26.9756
lclavicle 1.21259e-014 1.90833e-014
lhumerus -30.4762 11.2323 79.2181
lradius 33.2812
lwrist -7.29977
lhand -8.94926 26.6401
lfingers 7.12502
lthumb 16.9953 55.9166
rfemur -6.7907 2.89906 24.4283
rtibia 8.20381
rfoot -13.928 -7.57962
rtoes 11.1461
lfemur -66.7677 1.55831 -25.9042
ltibia 83.0924
lfoot -21.095 -6.37905
ltoes -14.7597
213
root -0.208328 18.1065 11.8541 -166.429 0.0824435 178.935
lowerback 7.16519 1.4118 -3.51132
upperback 1.44382 1.56265 1.13133
thorax -2.65129 0.771262 2.99787
lowerneck -16.4339 2.33137 -9.54378
upperneck 39.7559 1.58903 2.0206
head 17.1634 -1.89731 2.49166
rclavicle -2.23633e-014 -4.77083e-015
rhumerus -24.9857 -2.61518 -80.3495
rradius 34.9127
rwrist 20.7536
rhand -18.6768 2.73093
rfingers 7.12502
rthumb 7.61714 -27.1119
lclavicle -2.23633e-014 -4.77083e-015
lhumerus -30.4045 11.2081 79.2393
lradius 33.3113
lwrist -7.29452
lhand -9.09814 26.4294
lfingers 7.12502
lthumb 16.852 55.7182
rfemur -6.38928 2.84449 24.1779
rtibia 7.52295
rfoot -13.6564 -7.56658
rtoes 11.3669
lfemur -66.6357 1.50873 -26.132
ltibia 82.9368
lfoot -21.2125 -6.36181
ltoes -14.7207
214
root -0.22102 18.1146 11.7882 -166.232 0.0864249 178.693
lowerback 7.15695 1.43516 -3.73745
upperback 1.39772 1.57678 1.00856
thorax -2.69803 0.782926 2.99616
lowerneck -16.5966 2.25541 -9.54537
upperneck 39.6954 1.53536 2.03717
head 17.1772 -1.90032 2.49471
rclavicle -3.67752e-015 -9.14409e-015
rhumerus -25.0119 -2.72704 -80.2947
rradius 34.9375
rwrist 20.7393
rhand -18.8292 2.46729
rfingers 7.12502
rthumb 7.46997 -27.3808
lclavicle -3.67752e-015 -9.14409e-015
lhumerus -30.4125 10.9664 79.2843
lradius 33.4331
lwrist -7.23443
lhand -9.45357 26.1276
lfingers 7.12502
lthumb 16.5098 55.4452
rfemur -6.0028 2.7174 23.8716
rtibia 6.75356
rfoot -13.2465 -7.61897
rtoes 10.9488
lfemur -66.5462 1.3769 -26.4145
ltibia 82.7768
lfoot -21.2315 -6.4513
ltoes -14.4045
215
root -0.231421 18.1221 11.7205 -166.001 0.128198 178.605
lowerback 7.10552 1.47759 -3.84433
upperback 1.32639 1.62845 0.911709
thorax -2.74738 0.813451 2.95092
lowerneck -16.6486 2.1727 -9.53774
upperneck 39.5841 1.44178 2.07601
head 17.1372 -1.91238 2.49706
rclavicle -1.78906e-015 -1.19271e-015
rhumerus -25.0639 -2.89414 -80.2362
rradius 35.0431
rwrist 21.0135
rhand -19.3047 1.84847
rfingers 7.12502
rthumb 7.01101 -28.0154
lclavicle -1.78906e-015 -1.19271e-015
lhumerus -30.4294 10.7913 79.2708
lradius 33.5571
lwrist -7.19563
lhand -9.53327 25.9565
lfingers 7.12502
lthumb 16.4331 55.2805
rfemur -5.73989 2.66887 23.7383
rtibia 6.18177
rfoot -12.9373 -7.62766
rtoes 11.1858
lfemur -66.505 1.3778 -26.5371
ltibia 82.7123
lfoot -21.2869 -6.5822
ltoes -14.3787
216
root -0.244286 18.133 11.6506 -165.847 0.185593 178.457
lowerback 7.06587 1.52847 -3.98172
upperback 1.30979 1.68518 0.788771
thorax -2.74722 0.84335 2.89576
lowerneck -16.7071 2.07719 -9.5506
upperneck 39.4266 1.33814 2.15325
head 17.0735 -1.91906 2.51944
rclavicle -1.5207e-014 -1.98785e-015
rhumerus -25.0375 -2.89981 -80.2213
rradius 35.029
rwrist 20.4225
rhand -19.7178 1.45501
rfingers 7.12502
rthumb 6.61223 -28.4218
lclavicle -1.5207e-014 -1.98785e-015
lhumerus -30.299 10.7304 79.2444
lradius 33.5606
lwrist -7.24554
lhand -9.28669 25.9375
lfingers 7.12502
lthumb 16.6705 55.2416
rfemur -5.42932 2.61124 23.5168
rtibia 5.71831
rfoot -12.7639 -7.53182
rtoes 12.4703
lfemur -66.3354 1.38345 -26.7475
ltibia 82.682
lfoot -21.5137 -6.59688
ltoes -14.6747
217
root -0.260498 18.1472 11.5788 -165.682 0.23783 178.274
lowerback 7.02368 1.47508 -4.11831
upperback 1.27481 1.75038 0.627132
thorax -2.75971 0.941588 2.79627
lowerneck -16.9207 2.01091 -9.44264
upperneck 39.431 1.25074 2.18135
head 17.1388 -1.92345 2.50268
rclavicle -1.70955e-014 1.59028e-015
rhumerus -25.0594 -3.03866 -80.2463
rradius 35.0482
rwrist 19.966
rhand -19.8187 1.64325
rfingers 7.12502
rthumb 6.51486 -28.2365
lclavicle -1.70955e-014 1.59028e-015
lhumerus -30.2105 10.4556 79.2232
lradius 33.6332
lwrist -7.01475
lhand -9.23972 25.9792
lfingers 7.12502
lthumb 16.7157 55.2795
rfemur -5.26071 2.53594 23.236
rtibia 5.51881
rfoot -12.648 -7.42422
rtoes 13.195
lfemur -66.129 1.32078 -26.9584
ltibia 82.6355
lfoot -21.7021 -6.68775
ltoes -14.463
218
root -0.276389 18.1649 11.5093 -165.449 0.252869 178.35
lowerback 6.95174 1.49666 -4.01194
upperback 1.19425 1.78169 0.554145
thorax -2.80021 0.955929 2.65833
lowerneck -17.0914 1.96606 -9.42844
upperneck 39.427 1.17504 2.31996
head 17.1837 -1.92261 2.55396
rclavicle 8.84592e-015 -5.1684e-015
rhumerus -25.1385 -3.17954 -80.2455
rradius 35.1443
rwrist 19.9159
rhand -19.9796 2.04887
rfingers 7.12502
rthumb 6.35953 -27.8357
lclavicle 8.84592e-015 -5.1684e-015
lhumerus -30.222 10.181 79.1914
lradius 33.7548
lwrist -6.80256
lhand -9.3884 25.6422
lfingers 7.12502
lthumb 16.5725 54.9546
rfemur -5.44408 2.49569 23.252
rtibia 5.87781
rfoot -12.5737 -7.33137
rtoes 13.624
lfemur -65.9938 1.27757 -26.8579
ltibia 82.5587
lfoot -21.8564 -6.89588
ltoes -13.5694
219
root -0.289258 18.1867 11.4451 -165.175 0.232312 178.362
lowerback 6.88464 1.50921 -4.06208
upperback 1.0921 1.78944 0.535202
thorax -2.87021 0.960727 2.66632
lowerneck -17.1302 1.90793 -9.51982
upperneck 39.3176 1.12183 2.42855
head 17.1357 -1.92544 2.61192
rclavicle 5.96354e-015 6.36111e-015
rhumerus -25.2204 -3.23669 -80.1468
rradius 35.2395
rwrist 19.7745
rhand -20.1243 2.16805
rfingers 7.12502
rthumb 6.21984 -27.7206
lclavicle 5.96354e-015 6.36111e-015
lhumerus -30.2806 10.1506 79.2045
lradius 33.9354
lwrist -6.78517
lhand -9.35529 25.5495
lfingers 7.12502
lthumb 16.6044 54.8592
rfemur -5.86691 2.4122 23.2568
rtibia 6.57725
rfoot -11.8527 -8.82397
rtoes 12.5886
lfemur -65.8777 1.23722 -26.8443
ltibia 82.3825
lfoot -21.9618 -7.12144
ltoes -12.8818
220
root -0.304248 18.2095 11.381 -165.027 0.257651 178.249
lowerback 6.92686 1.52808 -4.20164
upperback 1.03262 1.79676 0.457
thorax -2.95773 0.96725 2.66116
lowerneck -17.0488 1.87683 -9.52435
upperneck 39.1361 1.08822 2.48836
head 17.0174 -1.90893 2.6339
rclavicle -1.43125e-014 1.19271e-015
rhumerus -25.2605 -3.29362 -80.0933
rradius 35.3297
rwrist 19.564
rhand -20.2058 1.90173
rfingers 7.12502
rthumb 6.14113 -27.9893
lclavicle -1.43125e-014 1.19271e-015
lhumerus -30.3087 10.1789 79.2012
lradius 34.0956
lwrist -6.74866
lhand -9.45936 25.6541
lfingers 7.12502
lthumb 16.5042 54.9721
rfemur -6.26789 2.3296 23.1117
rtibia 7.49041
rfoot -11.826 -9.27699
rtoes 10.6693
lfemur -65.5592 1.24508 -27.0174
ltibia 82.1196
lfoot -22.1819 -7.18956
ltoes -12.9958
